# xmcd
#
# Track frame offsets:
#	150
#	17740
#	39260
#
# Disc length: 796 seconds
#
# Revision: 0
# Processed by: cddbd v1.5.2PL0 Copyright (c) Steve Scherf et al.
# Submitted via: audiograbber 1.83.01
#
DISCID=17031a03
DTITLE=Joe - No One Else Comes Close CDS
DYEAR=1998
DGENRE=R&B
TTITLE0=No One Else Comes Close
TTITLE1=No One Else Comes Close (Steve Antony's R&B Mix)
TTITLE2=Watcha Gotta Do
EXTD=3 track CD single\nJIVE records
EXTT0=3:52
EXTT1=4:44
EXTT2=4:32\nNot on any album!
PLAYORDER=
